<?xml version="1.0" encoding="UTF-8" standalone="no"?>
<svg xmlns:dc="http://purl.org/dc/elements/1.1/" xmlns:cc="http://creativecommons.org/ns#" xmlns:rdf="http://www.w3.org/1999/02/22-rdf-syntax-ns#" xmlns:svg="http://www.w3.org/2000/svg" xmlns="http://www.w3.org/2000/svg" xmlns:sodipodi="http://sodipodi.sourceforge.net/DTD/sodipodi-0.dtd" xmlns:inkscape="http://www.inkscape.org/namespaces/inkscape" width="175.15927mm" height="156.65451mm" viewBox="0 0 175.15927 156.65451" version="1.1" id="svg8" inkscape:version="1.0.2 (e86c870879, 2021-01-15)" sodipodi:docname="devilFace.svg">
  <defs id="defs2"/>
  <sodipodi:namedview id="base" pagecolor="#ffffff" bordercolor="#666666" borderopacity="1.0" inkscape:pageopacity="0.0" inkscape:pageshadow="2" inkscape:zoom="0.98994949" inkscape:cx="142.74907" inkscape:cy="266.27533" inkscape:document-units="mm" inkscape:current-layer="g899" inkscape:document-rotation="0" showgrid="false" fit-margin-top="40" fit-margin-left="20" fit-margin-right="20" fit-margin-bottom="40" lock-margins="false" inkscape:window-width="1458" inkscape:window-height="1016" inkscape:window-x="205" inkscape:window-y="27" inkscape:window-maximized="0"/>
  <metadata id="metadata5">
    <rdf:RDF>
      <cc:Work rdf:about="">
        <dc:format>image/svg+xml</dc:format>
        <dc:type rdf:resource="http://purl.org/dc/dcmitype/StillImage"/>
        <dc:title/>
      </cc:Work>
    </rdf:RDF>
  </metadata>
  <g inkscape:groupmode="layer" id="layer2" inkscape:label="Face" style="display:none" sodipodi:insensitive="true" transform="translate(-9.4044515,-70.03704)">
    <path style="fill:none;stroke:#000000;stroke-width:6.61458;stroke-linecap:round;stroke-linejoin:round;stroke-miterlimit:4;stroke-dasharray:none;stroke-opacity:1" d="m 93.067512,121.18633 c 0,0 18.243378,26.99606 31.071808,36.98793 3.02997,2.35999 17.2951,11.48337 37.11704,-7.95001 -3.48164,10.26785 -13.48727,25.08212 -32.29783,23.65143 -17.33189,-1.31823 -24.92115,-9.82945 -34.674729,-18.62671 -9.753579,-8.79726 -36.630743,-24.55381 -61.571077,-9.69032" id="path876" sodipodi:nodetypes="cscszc"/>
    <path style="fill:none;stroke:#000000;stroke-width:6.61458;stroke-linecap:round;stroke-linejoin:round;stroke-miterlimit:4;stroke-dasharray:none;stroke-opacity:1" d="m 105.5248,136.53142 c 0,0 10.72518,-27.80436 46.65409,-22.53513 0,0 4.98029,37.08487 -24.99105,44.12964 -9.97328,2.34422 -14.74432,3.13271 -23.5526,1.73965 -8.808285,-1.39306 -12.728491,-6.61464 -24.045616,-8.0931 -11.317125,-1.47846 -16.023211,0.66993 -22.214957,3.80314" id="path880" sodipodi:nodetypes="ccszzc"/>
    <path id="path882" style="fill:none;stroke:#000000;stroke-width:6.61458;stroke-linecap:round;stroke-linejoin:round;stroke-miterlimit:4;stroke-dasharray:none;stroke-opacity:1;paint-order:normal;stop-color:#000000" d="m 107.83769,140.75647 c 0,-9.19849 7.45685,-16.65533 16.65534,-16.65533 9.19848,0 16.65533,7.45685 16.65533,16.65533 0,9.19848 -7.45685,16.65533 -16.65533,16.65533" sodipodi:nodetypes="cssc"/>
    <path style="fill:none;stroke:#000000;stroke-width:6.61458;stroke-linecap:round;stroke-linejoin:round;stroke-miterlimit:4;stroke-dasharray:none;stroke-opacity:1" d="m 129.76659,174.21893 c 0,0 -8.23449,9.59667 -26.47298,9.15002 -18.238502,-0.44664 -26.471271,-8.61726 -26.471271,-8.61726" id="path885" sodipodi:nodetypes="csc"/>
    <path style="fill:none;stroke:#000000;stroke-width:6.61458;stroke-linecap:round;stroke-linejoin:round;stroke-miterlimit:4;stroke-dasharray:none;stroke-opacity:1" d="m 67.44674,182.68767 c 0,0 3.57946,-12.70971 21.421143,-11.4161" id="path887" sodipodi:nodetypes="cc"/>
  </g>
  <g inkscape:groupmode="layer" id="g899" inkscape:label="Face copy" style="display:inline" transform="translate(-9.4044515,-70.03704)">
    <path id="path889" style="color:#000000;font-style:normal;font-variant:normal;font-weight:normal;font-stretch:normal;font-size:medium;line-height:normal;font-family:sans-serif;font-variant-ligatures:normal;font-variant-position:normal;font-variant-caps:normal;font-variant-numeric:normal;font-variant-alternates:normal;font-variant-east-asian:normal;font-feature-settings:normal;font-variation-settings:normal;text-indent:0;text-align:start;text-decoration:none;text-decoration-line:none;text-decoration-style:solid;text-decoration-color:#000000;letter-spacing:normal;word-spacing:normal;text-transform:none;writing-mode:lr-tb;direction:ltr;text-orientation:mixed;dominant-baseline:auto;baseline-shift:baseline;text-anchor:start;white-space:normal;shape-padding:0;shape-margin:0;inline-size:0;clip-rule:nonzero;display:inline;overflow:visible;visibility:visible;opacity:1;isolation:auto;mix-blend-mode:normal;color-interpolation:sRGB;color-interpolation-filters:linearRGB;solid-color:#000000;solid-opacity:1;vector-effect:none;fill:#ff5425;fill-opacity:1;fill-rule:nonzero;stroke:none;stroke-width:3.77953;stroke-linecap:round;stroke-linejoin:round;stroke-miterlimit:4;stroke-dasharray:none;stroke-dashoffset:0;stroke-opacity:1;color-rendering:auto;image-rendering:auto;shape-rendering:auto;text-rendering:auto;enable-background:accumulate;stop-color:#000000;stop-opacity:1" d="M 429.62891,0.00585938 C 377.80459,0.42776566 340.79242,19.53727 316.69336,40.679688 300.66555,54.74106 290.057,69.785237 283.69531,80.583984 264.4909,55.124579 250.97266,35.136719 250.97266,35.136719 a 12.499994,12.499994 0 0 0 -10.29102,-5.5 12.499994,12.499994 0 0 0 -7.07031,2.140625 12.499994,12.499994 0 0 0 -3.35156,17.363281 c 0,0 17.43597,25.806759 40.99023,56.367185 23.55424,30.56047 52.83714,65.81647 79.11914,86.28711 7.06798,5.50515 25.87128,17.86361 53.74024,18.5 15.44976,0.35282 33.52566,-3.74564 53.10546,-13.42187 -2.18577,2.36364 -4.19919,4.86033 -6.59961,7.04297 -17.94051,16.31297 -41.27706,27.34393 -73.40429,24.90039 -32.80475,-2.49506 -54.57858,-11.8197 -73.92969,-24.94532 a 12.499994,12.499994 0 0 0 -17.36328,3.33008 12.499994,12.499994 0 0 0 3.33008,17.36133 c 16.40511,11.1274 35.47689,20.21745 59.1875,25.33398 -14.72953,7.8142 -37.17193,15.54177 -68.86524,14.76563 -32.64754,-0.79948 -55.81187,-8.45037 -70.74023,-15.67188 -3.1607,-1.52897 -5.89381,-2.99923 -8.27344,-4.37695 6.64792,-1.02167 14.33317,-1.35761 23.2793,-0.70898 a 12.499994,12.499994 0 0 0 13.36914,-11.56836 12.499994,12.499994 0 0 0 -11.56055,-13.36719 c -36.72162,-2.66253 -61.24319,9.59826 -75.35351,23.21484 -14.11033,13.61662 -18.54297,29.01172 -18.54297,29.01172 a 12.499994,12.499994 0 0 0 8.64453,15.41992 12.499994,12.499994 0 0 0 15.41992,-8.64453 c 0,0 2.32756,-8.61742 11.83984,-17.79687 1.56811,-1.51324 3.33333,-3.02576 5.28907,-4.49414 3.91037,3.26961 12.35499,9.69359 25,15.81054 17.86286,8.64106 44.73024,17.27745 81.01562,18.16602 36.70292,0.89885 64.04167,-8.39183 82.12305,-18.1582 11.92846,-6.44295 20.09976,-13.36277 24.33789,-17.3711 34.26816,0.0181 61.92199,-13.44198 82.01367,-31.71093 22.03124,-20.0326 35.5804,-45.39063 42.74219,-66.51172 a 12.501244,12.501244 0 0 0 -20.58985,-12.93946 c -35.69011,34.99053 -64.22509,42.80628 -84.90625,42.33399 -2.01702,-0.0461 -3.94881,-0.19933 -5.83398,-0.40039 43.25578,-20.00648 64.04629,-58.92225 72.57422,-93.533206 10.10732,-41.02114 4.99805,-78.064453 4.99805,-78.064453 A 12.501244,12.501244 0 0 0 465.83789,2.5976562 C 456.93827,1.292472 448.39259,0.50248361 440.19336,0.17578125 436.60618,0.03285841 433.08386,-0.02226771 429.62891,0.00585938 Z m 1.54687,25.20703162 c 6.65579,0.02804 13.63138,0.395889 20.94531,1.146484 0.81415,10.517594 1.77659,31.593655 -4.98242,59.025391 -2.78854,11.317416 -6.69705,22.692904 -12.37305,33.343754 0.0303,-0.87389 0.0684,-1.74598 0.0684,-2.62696 0,-41.010502 -33.10571,-74.591372 -73.92773,-75.412107 18.15646,-9.208523 41.12898,-15.599328 70.26953,-15.476562 z m -71.79297,40.441406 c 28.01038,0 50.45508,22.436847 50.45508,50.447263 0,28.01042 -22.4447,50.45508 -50.45508,50.45508 a 12.499994,12.499994 0 0 0 -0.28125,0.004 C 343.67709,153.1329 325.71658,133.17808 309.04688,112.87704 310.69282,86.390296 332.4569,65.654387 359.38281,65.654387 Z M 96.382812,98.671875 c -4.641674,0.005 -9.320093,0.181305 -14.027343,0.546875 -25.105331,1.94971 -51.007742,9.24798 -76.2558596,24.29492 a 12.499994,12.499994 0 0 0 -4.3398438,17.14063 12.499994,12.499994 0 0 0 17.1406254,4.33984 c 43.766445,-26.08312 88.582759,-25.29894 128.025389,-13.95117 12.52932,3.60476 24.09857,8.50127 35.0918,13.76562 -38.26167,-3.26256 -60.1651,5.12694 -81.95313,16.15235 a 12.499994,12.499994 0 0 0 -5.505856,16.79492 12.499994,12.499994 0 0 0 16.792966,5.51367 c 23.17908,-11.72931 35.91536,-18.46153 76.70508,-13.13281 26.24704,3.4289 46.17424,15.07063 63.81641,22.88476 a 12.501244,12.501244 0 0 0 13.51562,-20.64062 c -3.84194,-3.528 -7.76261,-7.1341 -11.81055,-10.78516 C 233.6619,143.63221 197.9645,119.71798 153.83398,107.02148 135.90596,101.8635 116.49673,98.650148 96.382812,98.671875 Z" transform="matrix(0.26458333,0,0,0.26458333,29.405434,110.03737)"/>
  </g>
</svg>